<svg xmlns="http://www.w3.org/2000/svg" width="1024" height="1024" viewBox="0 0 1024 1024">
  <defs>
    <linearGradient id="g1" x1="0" x2="1" y1="0" y2="1">
      <stop offset="0%" stop-color="#FFD700"/>
      <stop offset="60%" stop-color="#FFB800"/>
      <stop offset="100%" stop-color="#FFD700"/>
    </linearGradient>
    <linearGradient id="g2" x1="0" x2="1" y1="0" y2="1">
      <stop offset="0%" stop-color="#1E90FF"/>
      <stop offset="100%" stop-color="#0D1B4C"/>
    </linearGradient>
  </defs>
  <!-- Gold flame -->
  <path d="M512 120c0 0-180 168-180 320 0 198 180 364 180 364s180-166 180-364c0-152-180-320-180-320z" fill="url(#g1)"/>
  <!-- Blue droplet merging at base -->
  <path d="M512 560c0 0 120-60 180-160 0 0-60 240-180 360-120-120-180-360-180-360 60 100 180 160 180 160z" fill="url(#g2)" opacity="0.95"/>
  <!-- Gold ring outline -->
  <circle cx="512" cy="512" r="470" fill="none" stroke="#0D1B4C" stroke-width="12" opacity="0.12"/>
</svg>